# xmcd
#
# Track frame offsets:
#	150
#	23174
#	52904
#	67119
#	94539
#	126518
#	133970
#	159794
#	201269
#	229330
#	269528
#	305796
#
# Disc length: 4281 seconds
#
# Revision: 1
# Processed by: cddbd v1.5.2PL0 Copyright (c) Steve Scherf et al.
# Submitted via: audiograbber 1.83.01
#
DISCID=b010b70c
DTITLE=Grateful Dead - 78-06-25 Autzen Stadium, Uni of Oregon, Eugene OR
DYEAR=1900
DGENRE=
TTITLE0=Promised Land
TTITLE1=They Love Each Other
TTITLE2=Me and My Uncle
TTITLE3=Big River
TTITLE4=Candyman
TTITLE5=Stage Banter
TTITLE6=Passenger
TTITLE7=Peggy-O
TTITLE8=New Minglewood Blues
TTITLE9=Samson and Delilah
TTITLE10=Friend Of The Devil
TTITLE11=Tuning
EXTD=
EXTT0=
EXTT1=
EXTT2=
EXTT3=
EXTT4=
EXTT5=
EXTT6=
EXTT7=
EXTT8=
EXTT9=
EXTT10=
EXTT11=
PLAYORDER=
